<?xml version="1.0" encoding="utf-8" ?>
<svg baseProfile="full" height="1024" version="1.1" width="1024" xmlns="http://www.w3.org/2000/svg" xmlns:ev="http://www.w3.org/2001/xml-events" xmlns:xlink="http://www.w3.org/1999/xlink"><defs /><path d="M 911,671 Z" fill="black" /><path d="M 812,671 Z" fill="black" /><path d="M 809,671 Z" fill="black" /><path d="M 806,671 L 807,671 Z" fill="black" /><path d="M 758,671 L 759,671 Z" fill="black" /><path d="M 700,671 Z" fill="black" /><path d="M 857,669 Z" fill="black" /><path d="M 849,669 Z" fill="black" /><path d="M 847,669 Z" fill="black" /><path d="M 793,669 L 793,670 Z" fill="black" /><path d="M 689,669 L 690,670 Z" fill="black" /><path d="M 675,657 Z" fill="black" /><path d="M 942,650 L 941,651 Z" fill="black" /><path d="M 940,647 Z" fill="black" /><path d="M 918,644 Z" fill="black" /><path d="M 739,641 Z" fill="black" /><path d="M 843,634 Z" fill="black" /><path d="M 839,631 Z" fill="black" /><path d="M 838,627 Z" fill="black" /><path d="M 695,626 Z" fill="black" /><path d="M 940,624 L 940,625 Z" fill="black" /><path d="M 738,624 Z" fill="black" /><path d="M 775,623 Z" fill="black" /><path d="M 759,623 L 760,623 Z" fill="black" /><path d="M 733,623 L 735,623 Z" fill="black" /><path d="M 883,621 Z" fill="black" /><path d="M 886,616 Z" fill="black" /><path d="M 842,613 Z" fill="black" /><path d="M 729,613 Z" fill="black" /><path d="M 785,611 Z" fill="black" /><path d="M 841,609 Z" fill="black" /><path d="M 822,609 Z" fill="black" /><path d="M 825,608 Z" fill="black" /><path d="M 820,608 Z" fill="black" /><path d="M 791,608 Z" fill="black" /><path d="M 904,607 L 903,608 L 902,608 L 901,609 L 899,609 L 898,610 L 896,610 L 895,609 L 896,610 L 893,613 L 892,613 L 891,612 L 892,613 L 889,616 L 889,617 L 886,620 L 886,621 L 885,622 L 885,623 L 884,624 L 884,625 L 885,626 L 885,627 L 884,628 L 883,627 L 883,629 L 882,630 L 882,634 L 883,635 L 883,639 L 882,640 L 881,639 L 881,636 L 881,639 L 883,641 L 882,642 L 882,647 L 883,648 L 883,650 L 882,651 L 884,649 L 885,650 L 885,651 L 884,652 L 884,653 L 885,654 L 885,655 L 887,657 L 887,658 L 892,663 L 893,663 L 895,665 L 896,665 L 897,666 L 898,666 L 899,667 L 901,667 L 902,668 L 904,668 L 905,669 L 904,670 L 903,670 L 904,670 L 905,669 L 918,669 L 919,668 L 922,668 L 923,667 L 924,667 L 925,666 L 926,666 L 927,665 L 928,665 L 930,663 L 931,663 L 934,660 L 934,659 L 936,657 L 936,656 L 938,654 L 938,652 L 939,651 L 939,650 L 940,649 L 924,649 L 924,650 L 920,654 L 919,654 L 918,655 L 917,655 L 916,656 L 908,656 L 907,655 L 906,655 L 905,654 L 904,654 L 902,652 L 903,651 L 902,652 L 900,650 L 900,649 L 899,648 L 899,646 L 898,645 L 898,643 L 899,642 L 940,642 L 940,633 L 939,632 L 939,628 L 938,627 L 938,624 L 937,623 L 937,622 L 936,621 L 936,620 L 934,618 L 934,617 L 928,611 L 927,611 L 926,610 L 925,610 L 924,609 L 922,609 L 921,608 L 919,608 L 918,607 Z" fill="black" /><path d="M 871,607 L 870,608 L 868,608 L 866,610 L 865,610 L 864,611 L 864,612 L 862,614 L 862,615 L 861,616 L 860,615 L 860,609 L 853,609 L 852,610 L 851,609 L 848,609 L 847,608 L 847,609 L 846,610 L 845,609 L 845,608 L 844,609 L 845,610 L 845,613 L 846,614 L 845,615 L 844,615 L 845,615 L 846,616 L 845,617 L 845,618 L 846,619 L 846,626 L 845,627 L 846,628 L 846,630 L 845,631 L 846,632 L 846,633 L 845,634 L 846,635 L 844,637 L 843,637 L 844,637 L 845,636 L 846,637 L 846,638 L 845,639 L 846,640 L 846,651 L 845,652 L 845,655 L 846,656 L 845,657 L 846,658 L 846,660 L 845,661 L 845,664 L 846,665 L 846,666 L 845,667 L 861,667 L 861,666 L 860,667 L 859,666 L 859,664 L 860,663 L 860,644 L 859,643 L 859,640 L 860,639 L 861,640 L 860,639 L 860,637 L 859,636 L 860,635 L 861,635 L 861,631 L 862,630 L 862,629 L 863,628 L 863,627 L 866,624 L 867,624 L 868,623 L 871,623 L 872,622 L 874,622 L 875,623 L 880,623 L 879,622 L 880,621 L 880,618 L 879,617 L 879,607 Z" fill="black" /><path d="M 799,607 L 798,608 L 796,608 L 795,609 L 793,609 L 792,610 L 791,610 L 790,611 L 789,611 L 787,613 L 786,613 L 780,619 L 780,620 L 778,622 L 778,623 L 777,624 L 777,625 L 776,626 L 776,629 L 775,630 L 775,633 L 774,634 L 774,642 L 775,643 L 775,647 L 776,648 L 776,650 L 777,651 L 777,653 L 779,655 L 779,656 L 780,657 L 780,658 L 785,663 L 786,663 L 787,664 L 788,664 L 790,666 L 791,666 L 792,665 L 793,666 L 793,667 L 795,667 L 796,668 L 798,668 L 799,669 L 812,669 L 813,668 L 816,668 L 817,667 L 818,667 L 819,666 L 821,666 L 823,664 L 824,664 L 826,662 L 827,663 L 826,662 L 827,661 L 828,661 L 830,659 L 830,658 L 833,655 L 833,654 L 834,653 L 834,652 L 835,651 L 835,649 L 836,648 L 836,645 L 837,644 L 837,631 L 836,631 L 835,630 L 836,629 L 836,627 L 835,626 L 835,625 L 834,624 L 834,623 L 833,622 L 833,621 L 831,619 L 831,618 L 827,614 L 826,614 L 824,612 L 823,612 L 822,611 L 821,611 L 820,610 L 819,610 L 818,609 L 816,609 L 815,608 L 814,608 L 813,609 L 812,609 L 811,608 L 812,607 Z" fill="black" /><path d="M 695,607 L 694,608 L 692,608 L 691,609 L 689,609 L 688,610 L 687,610 L 686,611 L 685,611 L 682,614 L 681,614 L 681,615 L 679,617 L 679,618 L 678,619 L 678,620 L 677,621 L 677,631 L 678,632 L 678,633 L 679,634 L 679,635 L 683,639 L 684,639 L 685,640 L 686,640 L 687,641 L 689,641 L 690,642 L 692,642 L 693,643 L 698,643 L 699,644 L 702,644 L 703,645 L 707,645 L 708,646 L 709,646 L 712,649 L 712,653 L 710,655 L 709,655 L 708,656 L 697,656 L 696,655 L 695,655 L 691,651 L 691,649 L 690,649 L 689,648 L 688,648 L 687,649 L 679,649 L 678,648 L 677,649 L 676,648 L 676,654 L 677,655 L 677,657 L 679,659 L 679,660 L 683,664 L 684,664 L 685,665 L 684,666 L 685,667 L 684,666 L 685,665 L 686,665 L 688,667 L 691,667 L 692,668 L 696,668 L 697,669 L 709,669 L 710,668 L 713,668 L 714,667 L 716,667 L 717,666 L 718,666 L 720,664 L 721,664 L 725,660 L 725,659 L 726,658 L 726,657 L 727,656 L 727,654 L 728,653 L 728,646 L 728,647 L 727,648 L 726,647 L 726,645 L 727,644 L 727,643 L 726,642 L 726,641 L 720,635 L 718,635 L 717,634 L 715,634 L 714,633 L 711,633 L 710,632 L 707,632 L 706,631 L 701,631 L 700,630 L 697,630 L 696,629 L 695,629 L 693,627 L 693,626 L 692,625 L 693,624 L 693,623 L 696,620 L 698,620 L 699,619 L 704,619 L 705,620 L 708,620 L 712,624 L 712,626 L 713,626 L 714,627 L 715,626 L 716,626 L 717,627 L 720,627 L 721,626 L 723,626 L 724,627 L 727,627 L 727,624 L 726,623 L 726,620 L 725,619 L 725,618 L 724,617 L 724,616 L 719,611 L 718,611 L 717,610 L 716,610 L 715,609 L 714,609 L 713,608 L 711,608 L 710,607 Z" fill="black" /><path d="M 143,607 Z" fill="black" /><path d="M 139,605 L 139,606 L 140,605 Z" fill="black" /><path d="M 143,600 Z" fill="black" /><path d="M 738,597 L 738,598 Z" fill="black" /><path d="M 745,592 Z" fill="black" /><path d="M 759,591 Z" fill="black" /><path d="M 755,590 L 754,591 L 752,591 L 751,592 L 749,592 L 748,593 L 747,593 L 746,594 L 744,594 L 743,593 L 743,594 L 742,595 L 741,595 L 741,596 L 740,597 L 740,598 L 741,599 L 741,600 L 742,601 L 741,602 L 741,608 L 740,609 L 738,609 L 737,608 L 736,609 L 731,609 L 731,621 L 741,621 L 742,622 L 742,625 L 741,626 L 741,634 L 742,635 L 741,636 L 741,637 L 742,638 L 742,639 L 741,640 L 741,644 L 742,645 L 741,646 L 741,657 L 740,658 L 741,657 L 742,658 L 742,660 L 743,661 L 743,662 L 747,666 L 748,666 L 749,667 L 750,667 L 751,668 L 753,668 L 754,669 L 766,669 L 767,668 L 769,668 L 770,667 L 771,667 L 771,666 L 770,665 L 771,664 L 770,663 L 770,662 L 771,661 L 770,660 L 770,656 L 771,655 L 760,655 L 757,652 L 757,649 L 756,648 L 756,624 L 757,623 L 756,622 L 757,621 L 771,621 L 771,615 L 770,614 L 770,613 L 771,612 L 771,609 L 760,609 L 759,608 L 758,609 L 757,609 L 756,608 L 756,592 L 757,591 L 756,590 Z" fill="black" /><path d="M 752,589 L 753,589 Z" fill="black" /><path d="M 193,589 Z" fill="black" /><path d="M 135,584 Z" fill="black" /><path d="M 229,583 Z" fill="black" /><path d="M 231,581 Z" fill="black" /><path d="M 238,574 Z" fill="black" /><path d="M 236,574 Z" fill="black" /><path d="M 239,570 Z" fill="black" /><path d="M 176,569 Z" fill="black" /><path d="M 130,569 Z" fill="black" /><path d="M 178,568 Z" fill="black" /><path d="M 895,567 Z" fill="black" /><path d="M 727,567 Z" fill="black" /><path d="M 688,567 Z" fill="black" /><path d="M 644,567 Z" fill="black" /><path d="M 469,567 Z" fill="black" /><path d="M 365,567 Z" fill="black" /><path d="M 239,567 Z" fill="black" /><path d="M 731,566 Z" fill="black" /><path d="M 304,566 Z" fill="black" /><path d="M 956,565 Z" fill="black" /><path d="M 953,565 L 954,565 Z" fill="black" /><path d="M 391,565 L 391,566 L 390,567 L 392,565 Z" fill="black" /><path d="M 392,563 Z" fill="black" /><path d="M 516,558 Z" fill="black" /><path d="M 75,558 Z" fill="black" /><path d="M 896,555 Z" fill="black" /><path d="M 75,555 Z" fill="black" /><path d="M 289,554 L 289,556 Z" fill="black" /><path d="M 672,553 Z" fill="black" /><path d="M 74,552 Z" fill="black" /><path d="M 72,552 Z" fill="black" /><path d="M 896,551 Z" fill="black" /><path d="M 408,551 Z" fill="black" /><path d="M 289,551 Z" fill="black" /><path d="M 165,551 Z" fill="black" /><path d="M 922,549 Z" fill="black" /><path d="M 409,547 Z" fill="black" /><path d="M 289,546 L 289,548 Z" fill="black" /><path d="M 494,545 Z" fill="black" /><path d="M 321,545 Z" fill="black" /><path d="M 954,544 Z" fill="black" /><path d="M 159,543 L 160,544 L 160,546 L 160,544 Z" fill="black" /><path d="M 896,542 L 896,547 Z" fill="black" /><path d="M 321,540 Z" fill="black" /><path d="M 289,540 L 289,541 Z" fill="black" /><path d="M 596,539 Z" fill="black" /><path d="M 289,538 Z" fill="black" /><path d="M 922,537 Z" fill="black" /><path d="M 864,537 Z" fill="black" /><path d="M 504,537 Z" fill="black" /><path d="M 68,537 Z" fill="black" /><path d="M 816,536 L 817,536 Z" fill="black" /><path d="M 896,535 Z" fill="black" /><path d="M 392,535 Z" fill="black" /><path d="M 153,535 Z" fill="black" /><path d="M 721,534 Z" fill="black" /><path d="M 289,534 L 289,535 Z" fill="black" /><path d="M 68,534 L 68,535 Z" fill="black" /><path d="M 665,532 Z" fill="black" /><path d="M 855,531 Z" fill="black" /><path d="M 323,531 Z" fill="black" /><path d="M 289,531 Z" fill="black" /><path d="M 67,531 L 67,532 L 66,533 L 67,532 Z" fill="black" /><path d="M 864,530 Z" fill="black" /><path d="M 392,529 Z" fill="black" /><path d="M 344,529 Z" fill="black" /><path d="M 798,528 Z" fill="black" /><path d="M 896,527 Z" fill="black" /><path d="M 439,526 L 439,527 Z" fill="black" /><path d="M 289,526 L 289,528 Z" fill="black" /><path d="M 66,526 Z" fill="black" /><path d="M 489,524 Z" fill="black" /><path d="M 484,524 Z" fill="black" /><path d="M 896,523 Z" fill="black" /><path d="M 864,523 Z" fill="black" /><path d="M 922,518 Z" fill="black" /><path d="M 864,518 Z" fill="black" /><path d="M 505,517 L 505,520 Z" fill="black" /><path d="M 64,517 L 65,517 Z" fill="black" /><path d="M 404,516 Z" fill="black" /><path d="M 289,516 L 289,517 Z" fill="black" /><path d="M 505,515 Z" fill="black" /><path d="M 65,515 Z" fill="black" /><path d="M 289,514 Z" fill="black" /><path d="M 664,512 Z" fill="black" /><path d="M 505,512 Z" fill="black" /><path d="M 254,512 Z" fill="black" /><path d="M 65,512 Z" fill="black" /><path d="M 922,510 Z" fill="black" /><path d="M 405,509 Z" fill="black" /><path d="M 505,507 L 505,508 Z" fill="black" /><path d="M 392,507 Z" fill="black" /><path d="M 864,506 Z" fill="black" /><path d="M 700,506 Z" fill="black" /><path d="M 664,505 Z" fill="black" /><path d="M 336,505 Z" fill="black" /><path d="M 922,504 Z" fill="black" /><path d="M 406,504 Z" fill="black" /><path d="M 289,504 Z" fill="black" /><path d="M 896,503 Z" fill="black" /><path d="M 598,503 Z" fill="black" /><path d="M 338,502 L 338,503 Z" fill="black" /><path d="M 505,500 Z" fill="black" /><path d="M 896,499 Z" fill="black" /><path d="M 392,499 Z" fill="black" /><path d="M 289,498 L 289,501 Z" fill="black" /><path d="M 896,497 Z" fill="black" /><path d="M 864,495 Z" fill="black" /><path d="M 756,495 Z" fill="black" /><path d="M 598,495 Z" fill="black" /><path d="M 289,495 Z" fill="black" /><path d="M 254,495 Z" fill="black" /><path d="M 505,494 L 505,495 Z" fill="black" /><path d="M 505,492 Z" fill="black" /><path d="M 64,492 L 65,493 Z" fill="black" /><path d="M 896,491 Z" fill="black" /><path d="M 406,490 L 406,492 Z" fill="black" /><path d="M 616,489 Z" fill="black" /><path d="M 332,487 Z" fill="black" /><path d="M 288,487 L 289,487 Z" fill="black" /><path d="M 598,486 L 598,488 Z" fill="black" /><path d="M 505,486 L 505,487 Z" fill="black" /><path d="M 188,486 Z" fill="black" /><path d="M 505,484 Z" fill="black" /><path d="M 330,483 Z" fill="black" /><path d="M 185,483 Z" fill="black" /><path d="M 289,482 L 289,485 Z" fill="black" /><path d="M 896,481 Z" fill="black" /><path d="M 864,481 L 864,482 Z" fill="black" /><path d="M 664,481 Z" fill="black" /><path d="M 505,480 Z" fill="black" /><path d="M 864,479 Z" fill="black" /><path d="M 598,479 Z" fill="black" /><path d="M 505,478 Z" fill="black" /><path d="M 67,478 Z" fill="black" /><path d="M 65,477 Z" fill="black" /><path d="M 505,476 Z" fill="black" /><path d="M 185,476 Z" fill="black" /><path d="M 864,475 Z" fill="black" /><path d="M 766,475 L 766,476 Z" fill="black" /><path d="M 329,475 Z" fill="black" /><path d="M 288,474 L 289,475 L 288,476 L 289,477 L 289,480 L 289,474 Z" fill="black" /><path d="M 864,473 Z" fill="black" /><path d="M 853,471 Z" fill="black" /><path d="M 289,471 Z" fill="black" /><path d="M 184,471 Z" fill="black" /><path d="M 922,468 Z" fill="black" /><path d="M 361,468 L 361,469 Z" fill="black" /><path d="M 164,468 Z" fill="black" /><path d="M 505,467 L 505,471 Z" fill="black" /><path d="M 289,467 L 289,469 Z" fill="black" /><path d="M 361,466 Z" fill="black" /><path d="M 400,465 Z" fill="black" /><path d="M 289,464 Z" fill="black" /><path d="M 505,463 Z" fill="black" /><path d="M 323,463 Z" fill="black" /><path d="M 864,462 L 864,463 Z" fill="black" /><path d="M 764,462 Z" fill="black" /><path d="M 616,462 L 616,463 Z" fill="black" /><path d="M 289,461 L 289,462 Z" fill="black" /><path d="M 616,460 Z" fill="black" /><path d="M 665,459 Z" fill="black" /><path d="M 361,459 L 361,460 Z" fill="black" /><path d="M 855,458 Z" fill="black" /><path d="M 616,457 Z" fill="black" /><path d="M 864,456 Z" fill="black" /><path d="M 361,456 Z" fill="black" /><path d="M 289,455 Z" fill="black" /><path d="M 72,452 Z" fill="black" /><path d="M 807,451 Z" fill="black" /><path d="M 754,451 Z" fill="black" /><path d="M 596,451 Z" fill="black" /><path d="M 504,450 Z" fill="black" /><path d="M 289,450 L 289,453 Z" fill="black" /><path d="M 595,448 Z" fill="black" /><path d="M 507,448 Z" fill="black" /><path d="M 361,448 L 361,449 Z" fill="black" /><path d="M 177,448 Z" fill="black" /><path d="M 864,447 Z" fill="black" /><path d="M 853,447 Z" fill="black" /><path d="M 289,447 L 289,448 Z" fill="black" /><path d="M 149,447 Z" fill="black" /><path d="M 360,446 Z" fill="black" /><path d="M 616,445 Z" fill="black" /><path d="M 348,443 Z" fill="black" /><path d="M 864,442 Z" fill="black" /><path d="M 289,442 Z" fill="black" /><path d="M 864,440 Z" fill="black" /><path d="M 150,440 Z" fill="black" /><path d="M 289,439 L 289,440 Z" fill="black" /><path d="M 254,439 Z" fill="black" /><path d="M 361,436 Z" fill="black" /><path d="M 487,434 L 487,435 Z" fill="black" /><path d="M 845,433 Z" fill="black" /><path d="M 416,433 Z" fill="black" /><path d="M 361,432 Z" fill="black" /><path d="M 80,432 Z" fill="black" /><path d="M 864,430 Z" fill="black" /><path d="M 899,428 Z" fill="black" /><path d="M 133,428 Z" fill="black" /><path d="M 289,427 Z" fill="black" /><path d="M 80,427 Z" fill="black" /><path d="M 734,425 Z" fill="black" /><path d="M 732,424 Z" fill="black" /><path d="M 687,424 Z" fill="black" /><path d="M 342,424 Z" fill="black" /><path d="M 289,422 L 289,424 Z" fill="black" /><path d="M 801,421 L 800,422 L 797,422 L 796,423 L 794,423 L 793,424 L 792,424 L 792,425 L 791,426 L 790,425 L 789,426 L 787,426 L 784,429 L 783,429 L 781,431 L 780,431 L 778,433 L 778,434 L 774,438 L 774,439 L 772,441 L 772,443 L 771,444 L 771,445 L 770,446 L 770,448 L 769,449 L 768,448 L 769,449 L 769,451 L 768,452 L 768,455 L 767,456 L 767,461 L 768,462 L 768,463 L 767,464 L 768,465 L 768,466 L 767,467 L 766,466 L 767,467 L 767,468 L 766,469 L 766,472 L 766,470 L 767,469 L 768,470 L 768,479 L 767,480 L 766,479 L 766,480 L 767,480 L 768,481 L 767,482 L 766,482 L 766,484 L 767,484 L 768,485 L 768,486 L 767,487 L 766,486 L 766,487 L 767,488 L 767,490 L 766,491 L 767,492 L 767,495 L 768,496 L 768,499 L 767,500 L 766,499 L 768,501 L 768,504 L 767,505 L 766,504 L 766,503 L 766,506 L 767,506 L 768,507 L 767,508 L 767,509 L 766,510 L 766,511 L 768,513 L 768,515 L 767,516 L 768,517 L 768,522 L 767,523 L 767,524 L 768,525 L 768,527 L 767,528 L 767,534 L 768,535 L 768,537 L 769,538 L 769,541 L 770,542 L 770,544 L 771,545 L 771,546 L 772,547 L 772,548 L 771,549 L 772,548 L 775,551 L 775,552 L 782,559 L 783,559 L 785,561 L 786,561 L 787,562 L 785,564 L 787,562 L 788,562 L 789,563 L 790,563 L 791,564 L 792,564 L 793,565 L 795,565 L 796,566 L 798,566 L 799,565 L 800,566 L 800,567 L 806,567 L 807,566 L 809,568 L 811,568 L 812,567 L 819,567 L 820,566 L 824,566 L 825,567 L 824,566 L 825,565 L 827,565 L 828,564 L 829,564 L 830,563 L 832,563 L 834,561 L 835,561 L 837,559 L 838,559 L 845,552 L 845,551 L 847,549 L 847,548 L 848,547 L 848,546 L 849,545 L 849,544 L 850,543 L 850,542 L 851,541 L 851,539 L 850,538 L 850,536 L 851,535 L 852,536 L 852,537 L 852,534 L 853,533 L 853,525 L 854,524 L 854,520 L 853,521 L 824,521 L 824,530 L 823,531 L 823,532 L 822,533 L 822,534 L 818,538 L 817,538 L 816,539 L 813,539 L 812,540 L 807,540 L 806,539 L 804,539 L 803,538 L 802,538 L 798,534 L 798,533 L 797,532 L 797,531 L 796,530 L 796,527 L 795,526 L 795,520 L 794,519 L 794,514 L 795,513 L 794,512 L 794,503 L 795,502 L 794,501 L 794,491 L 795,490 L 794,489 L 794,487 L 795,486 L 794,485 L 794,471 L 795,470 L 795,469 L 794,468 L 795,467 L 794,466 L 794,465 L 795,464 L 795,463 L 796,462 L 796,459 L 797,458 L 797,457 L 798,456 L 798,455 L 803,450 L 804,450 L 805,449 L 814,449 L 815,450 L 817,450 L 822,455 L 822,456 L 823,457 L 823,458 L 824,459 L 824,470 L 825,471 L 824,470 L 825,469 L 853,469 L 854,468 L 854,463 L 853,462 L 853,455 L 852,454 L 852,451 L 851,450 L 851,448 L 850,447 L 850,445 L 849,444 L 849,443 L 848,442 L 848,441 L 846,439 L 846,438 L 847,437 L 846,438 L 843,435 L 843,434 L 842,434 L 841,433 L 841,432 L 840,432 L 837,429 L 836,429 L 834,427 L 833,427 L 832,426 L 831,426 L 830,425 L 829,425 L 828,424 L 827,424 L 826,425 L 825,424 L 825,423 L 823,423 L 822,422 L 819,422 L 818,421 Z" fill="black" /><path d="M 696,421 L 697,422 L 696,423 L 694,423 L 693,424 L 691,424 L 690,425 L 689,425 L 688,426 L 687,426 L 685,428 L 684,428 L 678,434 L 677,434 L 677,435 L 675,437 L 675,438 L 673,440 L 672,439 L 673,440 L 673,441 L 671,443 L 671,445 L 670,446 L 670,448 L 669,449 L 669,451 L 668,452 L 668,455 L 667,456 L 667,461 L 668,462 L 668,527 L 667,528 L 666,527 L 666,464 L 666,527 L 667,528 L 667,535 L 668,536 L 668,539 L 669,540 L 669,542 L 668,543 L 669,542 L 670,543 L 670,544 L 671,545 L 671,546 L 672,546 L 673,547 L 672,548 L 673,549 L 673,550 L 675,552 L 675,553 L 680,558 L 681,558 L 683,560 L 684,560 L 686,562 L 687,562 L 688,563 L 689,563 L 690,564 L 692,564 L 693,565 L 695,565 L 696,566 L 699,566 L 700,567 L 705,567 L 706,566 L 707,566 L 708,567 L 708,568 L 710,568 L 711,567 L 712,568 L 714,568 L 715,567 L 720,567 L 718,567 L 717,566 L 718,565 L 721,565 L 722,566 L 725,566 L 726,565 L 728,565 L 729,564 L 730,564 L 731,563 L 732,563 L 733,562 L 734,562 L 735,561 L 736,561 L 738,559 L 739,559 L 746,552 L 746,551 L 748,549 L 748,548 L 749,547 L 749,546 L 750,545 L 750,544 L 751,543 L 751,541 L 752,540 L 752,539 L 751,538 L 751,536 L 752,535 L 753,536 L 753,537 L 753,532 L 754,531 L 754,528 L 755,527 L 754,526 L 726,526 L 726,528 L 725,529 L 725,531 L 726,532 L 725,533 L 724,533 L 723,534 L 723,535 L 721,537 L 720,537 L 719,538 L 718,538 L 717,539 L 716,539 L 717,540 L 716,541 L 715,541 L 714,540 L 708,540 L 707,539 L 705,539 L 704,538 L 703,538 L 702,537 L 703,536 L 702,537 L 698,533 L 698,532 L 697,531 L 697,527 L 696,526 L 696,505 L 697,504 L 754,504 L 754,462 L 753,461 L 753,455 L 752,454 L 752,450 L 751,449 L 751,448 L 750,447 L 750,445 L 749,444 L 749,443 L 750,442 L 749,443 L 748,442 L 748,441 L 746,439 L 746,438 L 744,436 L 744,435 L 742,433 L 743,432 L 742,433 L 740,431 L 739,431 L 737,429 L 736,429 L 734,427 L 733,427 L 732,426 L 731,426 L 730,425 L 729,425 L 728,424 L 727,424 L 726,423 L 723,423 L 722,422 L 719,422 L 718,421 L 701,421 L 700,422 L 697,422 Z" fill="black" /><path d="M 543,421 L 542,422 L 538,422 L 537,423 L 535,423 L 534,424 L 532,424 L 531,425 L 530,425 L 529,426 L 528,426 L 527,427 L 526,427 L 524,429 L 523,429 L 516,436 L 516,437 L 514,439 L 513,438 L 514,439 L 514,440 L 513,441 L 512,440 L 513,441 L 513,442 L 512,443 L 512,444 L 511,445 L 511,446 L 510,447 L 510,449 L 509,450 L 509,452 L 508,453 L 508,456 L 509,457 L 509,462 L 508,463 L 507,462 L 507,458 L 507,530 L 508,531 L 508,536 L 509,537 L 509,540 L 510,541 L 510,543 L 511,544 L 511,545 L 512,546 L 512,547 L 514,549 L 514,550 L 516,552 L 516,553 L 521,558 L 522,558 L 524,560 L 525,560 L 527,562 L 528,562 L 529,563 L 530,563 L 531,564 L 533,564 L 534,565 L 536,565 L 537,566 L 540,566 L 541,567 L 549,567 L 550,568 L 553,568 L 552,567 L 553,566 L 555,566 L 556,567 L 561,567 L 562,566 L 566,566 L 567,565 L 569,565 L 570,564 L 572,564 L 573,563 L 574,563 L 576,561 L 577,561 L 578,560 L 579,560 L 582,557 L 583,557 L 586,554 L 586,553 L 589,550 L 589,549 L 590,548 L 590,547 L 591,546 L 591,545 L 592,544 L 592,543 L 593,542 L 593,540 L 594,539 L 594,537 L 593,536 L 594,535 L 595,535 L 595,530 L 594,529 L 595,528 L 596,528 L 596,459 L 596,463 L 595,464 L 594,463 L 594,458 L 595,457 L 595,453 L 594,452 L 594,450 L 593,449 L 593,447 L 592,446 L 592,445 L 591,444 L 591,443 L 590,442 L 590,441 L 588,439 L 588,438 L 584,434 L 584,433 L 585,432 L 584,433 L 583,432 L 582,432 L 579,429 L 578,429 L 577,428 L 578,427 L 577,428 L 576,427 L 575,427 L 574,426 L 573,426 L 572,425 L 571,425 L 570,424 L 568,424 L 567,423 L 565,423 L 564,422 L 560,422 L 559,421 Z" fill="black" /><path d="M 442,421 L 441,422 L 438,422 L 437,423 L 435,423 L 434,424 L 432,424 L 431,425 L 430,425 L 429,426 L 428,426 L 427,427 L 426,427 L 424,429 L 423,429 L 416,436 L 416,437 L 413,440 L 413,441 L 412,442 L 411,441 L 412,442 L 412,443 L 411,444 L 411,446 L 410,447 L 410,448 L 409,449 L 409,451 L 408,452 L 408,455 L 407,456 L 407,464 L 408,465 L 407,466 L 408,467 L 407,468 L 407,470 L 406,471 L 406,472 L 407,472 L 408,473 L 407,474 L 408,475 L 406,477 L 406,480 L 406,479 L 407,478 L 408,479 L 408,482 L 406,484 L 408,486 L 406,488 L 407,487 L 408,488 L 408,496 L 407,497 L 406,496 L 406,495 L 406,496 L 407,497 L 406,498 L 406,500 L 408,502 L 408,507 L 407,508 L 407,510 L 406,511 L 406,512 L 408,514 L 408,515 L 407,516 L 407,518 L 408,519 L 407,520 L 406,520 L 407,521 L 407,533 L 408,534 L 408,537 L 409,538 L 409,540 L 410,541 L 410,542 L 411,543 L 411,544 L 412,545 L 412,546 L 413,547 L 413,548 L 415,550 L 415,551 L 423,559 L 424,559 L 426,561 L 427,561 L 428,562 L 429,562 L 430,563 L 431,563 L 432,564 L 433,564 L 434,565 L 436,565 L 437,566 L 440,566 L 441,567 L 447,567 L 448,568 L 454,568 L 455,567 L 462,567 L 463,566 L 467,566 L 468,565 L 469,565 L 470,564 L 472,564 L 473,563 L 474,563 L 475,562 L 476,562 L 478,560 L 479,560 L 481,558 L 482,558 L 487,553 L 487,552 L 489,550 L 489,549 L 491,547 L 491,546 L 492,545 L 492,543 L 493,542 L 493,540 L 494,539 L 494,537 L 495,536 L 495,530 L 494,529 L 494,528 L 495,527 L 496,527 L 495,526 L 467,526 L 467,528 L 468,529 L 468,530 L 467,531 L 466,530 L 466,532 L 464,534 L 464,535 L 463,536 L 462,536 L 461,537 L 460,536 L 461,537 L 460,538 L 459,538 L 458,539 L 455,539 L 454,540 L 449,540 L 448,539 L 445,539 L 443,537 L 442,537 L 440,535 L 440,534 L 438,532 L 438,531 L 437,530 L 437,525 L 436,525 L 435,524 L 435,519 L 436,518 L 437,519 L 437,520 L 437,519 L 435,517 L 435,515 L 436,514 L 435,513 L 435,506 L 436,505 L 437,506 L 437,512 L 437,505 L 438,504 L 495,504 L 494,503 L 494,478 L 495,477 L 494,476 L 494,473 L 495,472 L 494,471 L 494,468 L 495,467 L 494,466 L 495,465 L 495,464 L 494,463 L 495,462 L 495,456 L 494,455 L 494,452 L 494,453 L 493,454 L 492,453 L 492,451 L 493,450 L 493,449 L 492,450 L 491,449 L 491,448 L 492,447 L 492,446 L 491,445 L 491,444 L 490,443 L 490,442 L 489,441 L 489,440 L 485,436 L 485,435 L 482,432 L 481,432 L 477,428 L 476,428 L 475,427 L 474,427 L 473,426 L 472,426 L 471,425 L 470,425 L 469,424 L 467,424 L 466,423 L 463,423 L 462,422 L 458,422 L 457,421 Z" fill="black" /><path d="M 343,421 Z" fill="black" /><path d="M 170,420 L 170,421 Z" fill="black" /><path d="M 896,419 L 896,421 Z" fill="black" /><path d="M 821,419 Z" fill="black" /><path d="M 714,419 Z" fill="black" /><path d="M 543,419 Z" fill="black" /><path d="M 289,419 L 289,420 Z" fill="black" /><path d="M 864,418 L 864,419 Z" fill="black" /><path d="M 696,418 Z" fill="black" /><path d="M 169,418 Z" fill="black" /><path d="M 896,417 Z" fill="black" /><path d="M 896,411 Z" fill="black" /><path d="M 289,409 L 289,410 L 288,411 L 289,412 L 289,415 Z" fill="black" /><path d="M 91,408 Z" fill="black" /><path d="M 289,407 Z" fill="black" /><path d="M 672,404 Z" fill="black" /><path d="M 289,404 L 289,405 Z" fill="black" /><path d="M 896,403 Z" fill="black" /><path d="M 662,402 L 663,402 Z" fill="black" /><path d="M 288,402 Z" fill="black" /><path d="M 896,401 Z" fill="black" /><path d="M 361,400 L 360,401 L 360,402 L 361,403 L 361,408 Z" fill="black" /><path d="M 111,400 Z" fill="black" /><path d="M 864,399 Z" fill="black" /><path d="M 580,399 Z" fill="black" /><path d="M 108,395 L 108,396 Z" fill="black" /><path d="M 332,394 Z" fill="black" /><path d="M 289,393 L 289,399 Z" fill="black" /><path d="M 361,392 L 361,393 Z" fill="black" /><path d="M 252,390 L 252,391 Z" fill="black" /><path d="M 252,387 Z" fill="black" /><path d="M 289,384 Z" fill="black" /><path d="M 896,382 L 896,383 Z" fill="black" /><path d="M 864,382 Z" fill="black" /><path d="M 361,379 Z" fill="black" /><path d="M 250,377 Z" fill="black" /><path d="M 289,376 Z" fill="black" /><path d="M 866,372 L 864,374 L 864,375 L 864,374 L 865,373 L 866,374 L 866,380 L 867,381 L 866,382 L 866,383 L 867,384 L 867,386 L 866,387 L 866,389 L 867,390 L 867,393 L 866,394 L 867,395 L 867,397 L 866,398 L 867,399 L 867,401 L 866,402 L 866,403 L 867,404 L 867,409 L 866,410 L 867,411 L 867,414 L 866,415 L 867,416 L 867,447 L 866,448 L 867,449 L 867,453 L 866,454 L 867,455 L 867,457 L 866,458 L 867,459 L 867,461 L 866,462 L 867,463 L 867,548 L 866,549 L 867,550 L 867,559 L 866,560 L 866,562 L 867,563 L 867,564 L 866,565 L 865,565 L 866,566 L 867,565 L 869,567 L 870,566 L 871,566 L 872,565 L 878,565 L 879,564 L 880,565 L 880,566 L 881,565 L 883,565 L 884,566 L 884,565 L 885,564 L 887,566 L 888,566 L 889,565 L 890,566 L 891,565 L 896,565 L 896,560 L 896,564 L 895,565 L 894,564 L 894,541 L 896,539 L 895,538 L 895,537 L 894,536 L 894,508 L 895,507 L 894,506 L 895,505 L 894,504 L 894,485 L 895,484 L 896,485 L 896,487 L 896,485 L 895,484 L 896,483 L 895,484 L 894,483 L 894,466 L 895,465 L 896,466 L 896,471 L 896,462 L 897,461 L 897,458 L 898,457 L 898,456 L 900,454 L 900,453 L 901,452 L 902,452 L 904,450 L 906,450 L 907,449 L 915,449 L 916,450 L 917,450 L 919,452 L 918,453 L 919,452 L 922,455 L 923,455 L 924,456 L 923,457 L 923,459 L 924,460 L 924,566 L 925,566 L 926,565 L 927,566 L 928,566 L 930,564 L 931,564 L 932,565 L 933,565 L 934,566 L 939,566 L 939,565 L 940,564 L 941,565 L 942,564 L 943,565 L 943,566 L 947,566 L 945,566 L 944,565 L 945,564 L 949,564 L 950,565 L 949,566 L 950,565 L 951,565 L 951,564 L 952,563 L 952,560 L 953,559 L 954,560 L 953,559 L 953,556 L 952,555 L 953,554 L 953,552 L 952,551 L 953,550 L 953,549 L 952,548 L 952,547 L 953,546 L 952,545 L 952,542 L 953,541 L 952,540 L 952,536 L 953,535 L 952,534 L 952,532 L 953,531 L 952,530 L 952,527 L 953,526 L 952,525 L 952,516 L 953,515 L 952,514 L 952,511 L 953,510 L 953,506 L 954,505 L 953,505 L 952,504 L 952,499 L 953,498 L 954,499 L 952,497 L 952,496 L 953,495 L 954,496 L 953,495 L 953,493 L 952,492 L 953,491 L 952,490 L 953,489 L 953,488 L 952,487 L 953,486 L 953,485 L 952,484 L 953,483 L 953,482 L 952,481 L 952,479 L 953,478 L 953,477 L 952,476 L 953,475 L 952,474 L 953,473 L 953,467 L 952,466 L 952,464 L 953,463 L 952,462 L 953,461 L 952,460 L 953,459 L 953,448 L 952,447 L 952,443 L 951,442 L 951,440 L 950,439 L 950,438 L 949,437 L 949,436 L 948,435 L 948,434 L 947,433 L 948,432 L 947,432 L 942,427 L 941,427 L 939,425 L 940,424 L 939,425 L 938,425 L 937,424 L 936,424 L 935,423 L 933,423 L 932,422 L 930,422 L 929,421 L 915,421 L 914,422 L 912,422 L 911,423 L 909,423 L 908,424 L 907,424 L 906,425 L 905,425 L 902,428 L 901,428 L 901,429 L 900,430 L 899,430 L 897,432 L 896,431 L 896,426 L 895,425 L 896,424 L 895,425 L 894,424 L 894,414 L 895,413 L 894,412 L 894,394 L 895,393 L 896,394 L 896,396 L 896,393 L 895,393 L 894,392 L 894,376 L 895,375 L 896,375 L 896,373 L 884,373 L 883,372 L 882,372 L 881,373 L 880,372 L 879,373 L 878,373 L 877,372 L 876,373 L 870,373 L 869,372 L 868,373 L 867,373 Z" fill="black" /><path d="M 583,372 L 582,373 L 582,374 L 583,375 L 582,376 L 582,384 L 584,386 L 583,387 L 583,390 L 582,391 L 582,401 L 583,402 L 584,401 L 589,401 L 590,400 L 592,402 L 592,401 L 593,400 L 594,401 L 597,401 L 598,402 L 600,402 L 601,401 L 603,401 L 604,400 L 610,400 L 611,401 L 613,401 L 614,400 L 616,402 L 616,403 L 617,403 L 618,404 L 618,410 L 617,411 L 618,412 L 617,413 L 617,415 L 618,416 L 618,420 L 617,421 L 617,422 L 618,423 L 618,424 L 617,425 L 617,429 L 618,430 L 618,431 L 617,432 L 617,439 L 618,440 L 618,450 L 617,451 L 617,452 L 616,453 L 616,455 L 617,454 L 618,455 L 618,466 L 617,467 L 617,468 L 618,469 L 618,471 L 617,472 L 618,473 L 618,474 L 617,475 L 617,479 L 618,480 L 618,482 L 617,483 L 618,484 L 618,490 L 617,491 L 617,492 L 618,493 L 617,494 L 618,495 L 618,496 L 617,497 L 618,498 L 617,499 L 618,500 L 617,501 L 617,502 L 618,503 L 618,506 L 617,507 L 618,508 L 618,509 L 617,510 L 618,511 L 618,514 L 617,515 L 617,516 L 618,517 L 618,518 L 617,519 L 618,520 L 618,522 L 617,523 L 617,525 L 616,526 L 617,526 L 618,527 L 617,528 L 618,529 L 617,530 L 617,534 L 618,535 L 618,541 L 617,542 L 617,543 L 618,544 L 618,546 L 617,547 L 618,548 L 617,549 L 618,550 L 618,551 L 617,552 L 617,564 L 616,565 L 617,566 L 618,565 L 619,565 L 620,566 L 621,565 L 622,565 L 623,566 L 624,565 L 631,565 L 632,566 L 633,565 L 634,566 L 640,566 L 640,565 L 641,564 L 642,564 L 643,565 L 642,566 L 643,565 L 644,565 L 645,564 L 646,565 L 646,567 L 646,526 L 647,525 L 646,524 L 646,521 L 647,520 L 646,519 L 646,503 L 647,502 L 646,501 L 646,492 L 647,491 L 646,490 L 646,487 L 647,486 L 646,485 L 646,484 L 647,483 L 646,482 L 646,481 L 647,480 L 646,479 L 646,475 L 647,474 L 646,473 L 646,450 L 647,449 L 646,448 L 646,428 L 647,427 L 646,426 L 646,403 L 647,402 L 648,402 L 649,401 L 650,401 L 651,400 L 653,400 L 655,402 L 657,400 L 658,400 L 659,401 L 660,400 L 664,400 L 665,401 L 666,400 L 667,401 L 668,400 L 674,400 L 675,401 L 678,401 L 678,384 L 677,383 L 677,382 L 676,381 L 677,380 L 676,379 L 676,378 L 677,377 L 678,378 L 678,376 L 677,375 L 678,374 L 677,373 L 649,373 L 648,372 L 647,373 L 646,373 L 645,372 L 644,372 L 643,373 L 642,372 L 641,373 L 631,373 L 630,372 L 629,372 L 628,373 L 624,373 L 623,372 L 618,372 L 617,373 L 616,372 L 615,373 L 614,372 L 612,372 L 611,373 L 608,373 L 607,372 L 604,372 L 603,373 L 598,373 L 597,372 L 596,373 L 584,373 Z" fill="black" /><path d="M 679,371 Z" fill="black" /><path d="M 292,371 L 292,372 L 291,373 L 291,434 L 290,435 L 289,434 L 290,435 L 289,436 L 289,437 L 290,437 L 291,438 L 291,458 L 290,459 L 289,458 L 289,459 L 290,459 L 291,460 L 291,492 L 290,493 L 289,492 L 289,490 L 289,493 L 290,493 L 291,494 L 291,564 L 290,565 L 289,564 L 290,565 L 289,566 L 290,565 L 291,566 L 293,566 L 294,567 L 295,566 L 296,566 L 295,565 L 296,564 L 297,564 L 299,566 L 298,565 L 299,564 L 307,564 L 308,565 L 307,566 L 306,566 L 312,566 L 313,565 L 314,566 L 317,566 L 318,565 L 319,566 L 320,566 L 321,565 L 320,565 L 319,564 L 320,563 L 321,563 L 320,563 L 319,562 L 320,561 L 321,561 L 321,559 L 320,558 L 320,553 L 321,552 L 321,551 L 320,550 L 321,549 L 319,547 L 319,544 L 320,543 L 321,543 L 319,541 L 319,539 L 320,538 L 319,537 L 319,536 L 320,535 L 321,536 L 320,535 L 320,530 L 319,529 L 319,528 L 320,527 L 320,523 L 319,522 L 320,521 L 320,516 L 319,515 L 319,513 L 320,512 L 321,512 L 320,512 L 319,511 L 319,510 L 320,509 L 320,508 L 319,507 L 319,506 L 320,505 L 320,501 L 319,500 L 319,496 L 320,495 L 321,496 L 320,495 L 320,494 L 319,493 L 320,492 L 319,491 L 319,489 L 320,488 L 320,459 L 321,458 L 322,459 L 323,458 L 322,459 L 320,457 L 320,456 L 321,455 L 322,456 L 320,454 L 320,453 L 321,452 L 320,451 L 320,447 L 321,446 L 322,447 L 322,449 L 323,450 L 323,452 L 324,453 L 324,455 L 325,456 L 325,459 L 326,460 L 326,461 L 327,462 L 327,464 L 328,465 L 328,467 L 329,468 L 329,470 L 330,471 L 330,473 L 331,474 L 331,476 L 332,477 L 332,479 L 333,480 L 333,482 L 334,483 L 334,485 L 335,486 L 335,488 L 336,489 L 336,491 L 337,492 L 337,494 L 336,495 L 337,494 L 338,495 L 338,497 L 339,498 L 339,500 L 340,501 L 340,503 L 341,504 L 341,506 L 342,507 L 342,509 L 343,510 L 343,512 L 344,513 L 344,515 L 345,516 L 345,517 L 346,516 L 347,517 L 347,518 L 346,519 L 346,520 L 347,520 L 348,521 L 347,522 L 347,524 L 348,525 L 348,527 L 349,528 L 349,530 L 350,531 L 350,533 L 351,534 L 351,536 L 352,537 L 352,539 L 353,540 L 353,542 L 354,543 L 354,545 L 355,546 L 355,548 L 356,549 L 356,551 L 357,552 L 357,554 L 358,555 L 358,557 L 359,558 L 359,559 L 360,560 L 360,563 L 361,564 L 361,565 L 362,564 L 363,565 L 364,565 L 365,564 L 367,564 L 368,565 L 369,565 L 370,564 L 371,565 L 372,564 L 375,564 L 376,565 L 375,566 L 376,566 L 378,564 L 381,564 L 382,565 L 381,566 L 379,566 L 381,566 L 382,565 L 383,565 L 384,566 L 385,565 L 386,565 L 387,566 L 388,566 L 389,565 L 389,564 L 390,563 L 390,532 L 391,531 L 390,530 L 390,487 L 391,486 L 391,485 L 390,484 L 391,483 L 392,483 L 391,482 L 391,481 L 390,480 L 390,459 L 391,458 L 390,457 L 391,456 L 390,455 L 390,441 L 391,440 L 390,439 L 390,414 L 391,413 L 390,412 L 391,411 L 390,410 L 390,393 L 391,392 L 390,391 L 390,389 L 391,388 L 390,387 L 390,385 L 391,384 L 390,383 L 390,376 L 391,375 L 390,374 L 391,373 L 370,373 L 369,372 L 368,373 L 361,373 L 360,374 L 360,375 L 361,374 L 362,375 L 362,376 L 363,377 L 363,380 L 362,381 L 361,381 L 362,382 L 362,383 L 361,384 L 361,386 L 362,387 L 361,388 L 362,387 L 363,388 L 363,397 L 362,398 L 363,399 L 363,409 L 361,411 L 361,412 L 362,413 L 362,415 L 363,416 L 363,418 L 362,419 L 363,420 L 363,422 L 361,424 L 362,423 L 363,424 L 363,428 L 362,429 L 361,428 L 361,427 L 361,429 L 362,429 L 363,430 L 363,438 L 361,440 L 362,439 L 363,440 L 363,473 L 362,474 L 361,473 L 361,472 L 361,477 L 362,476 L 363,477 L 363,479 L 362,480 L 361,479 L 361,484 L 360,485 L 359,484 L 359,481 L 358,480 L 358,479 L 357,478 L 357,476 L 356,477 L 355,476 L 355,475 L 356,474 L 356,473 L 355,472 L 355,469 L 354,468 L 354,466 L 353,465 L 353,463 L 352,462 L 352,460 L 351,459 L 351,456 L 350,455 L 350,454 L 349,453 L 349,451 L 348,450 L 348,448 L 347,447 L 347,445 L 346,444 L 346,442 L 345,441 L 345,439 L 344,438 L 344,436 L 343,435 L 343,432 L 342,431 L 342,430 L 341,431 L 340,430 L 340,429 L 341,428 L 341,427 L 340,426 L 340,424 L 339,424 L 338,423 L 339,422 L 339,420 L 338,419 L 338,417 L 337,416 L 337,415 L 336,414 L 336,412 L 335,413 L 334,412 L 334,411 L 335,410 L 335,408 L 334,407 L 334,405 L 333,404 L 333,402 L 332,401 L 332,399 L 331,398 L 331,396 L 330,395 L 330,393 L 329,392 L 329,390 L 328,389 L 328,387 L 328,388 L 327,389 L 326,388 L 326,386 L 327,385 L 327,384 L 327,385 L 326,386 L 325,385 L 325,383 L 326,382 L 326,381 L 326,382 L 325,383 L 324,382 L 324,380 L 325,379 L 325,378 L 324,379 L 323,378 L 323,377 L 324,376 L 324,374 L 323,373 L 319,373 L 318,372 L 317,373 L 312,373 L 311,372 L 310,373 L 309,372 L 308,372 L 307,373 L 306,373 L 305,372 L 304,373 L 303,373 L 302,372 L 301,373 L 300,372 L 299,373 L 296,373 L 295,372 L 294,373 L 293,373 L 292,372 Z" fill="black" /><path d="M 866,370 Z" fill="black" /><path d="M 295,370 Z" fill="black" /><path d="M 247,365 Z" fill="black" /><path d="M 243,352 Z" fill="black" /><path d="M 186,352 Z" fill="black" /><path d="M 239,344 Z" fill="black" /><path d="M 239,342 Z" fill="black" /><path d="M 192,328 Z" fill="black" /><path d="M 230,327 Z" fill="black" /><path d="M 228,324 Z" fill="black" /><path d="M 192,324 L 192,325 Z" fill="black" /><path d="M 226,321 L 227,322 Z" fill="black" /><path d="M 192,304 Z" fill="black" /><path d="M 192,302 Z" fill="black" /><path d="M 192,288 L 192,292 L 193,293 L 193,298 L 194,299 L 194,330 L 193,331 L 193,338 L 192,339 L 192,344 L 191,345 L 191,349 L 190,350 L 190,354 L 189,355 L 189,357 L 188,358 L 188,361 L 187,362 L 187,364 L 186,365 L 186,367 L 185,368 L 185,369 L 184,370 L 184,372 L 183,373 L 183,375 L 182,376 L 182,377 L 181,378 L 181,379 L 180,380 L 180,381 L 179,382 L 179,383 L 178,384 L 178,385 L 177,386 L 177,387 L 176,388 L 176,389 L 175,390 L 175,391 L 174,392 L 174,393 L 171,396 L 171,397 L 168,400 L 168,401 L 167,402 L 167,405 L 168,406 L 168,408 L 169,409 L 169,411 L 170,412 L 170,415 L 171,416 L 171,418 L 172,419 L 172,422 L 173,423 L 173,426 L 174,427 L 174,429 L 175,430 L 175,433 L 176,434 L 176,436 L 177,437 L 177,440 L 178,441 L 178,444 L 179,445 L 179,447 L 180,448 L 180,451 L 179,452 L 180,452 L 181,453 L 181,455 L 182,456 L 182,458 L 183,459 L 183,462 L 184,463 L 184,466 L 185,467 L 185,469 L 186,470 L 186,473 L 187,474 L 187,477 L 186,478 L 187,477 L 188,478 L 188,480 L 189,481 L 189,484 L 190,485 L 190,488 L 191,489 L 191,491 L 192,492 L 192,496 L 193,497 L 193,499 L 194,500 L 194,503 L 195,504 L 195,509 L 194,510 L 192,508 L 192,507 L 191,506 L 192,505 L 191,504 L 190,505 L 188,503 L 188,502 L 184,498 L 184,497 L 181,494 L 181,493 L 179,491 L 179,490 L 176,487 L 176,486 L 177,485 L 176,486 L 174,484 L 175,483 L 174,484 L 172,482 L 172,481 L 168,477 L 168,476 L 165,473 L 165,472 L 162,469 L 162,468 L 159,465 L 159,464 L 155,460 L 155,459 L 152,456 L 152,455 L 148,451 L 148,450 L 144,446 L 144,445 L 142,443 L 142,442 L 138,438 L 138,437 L 134,433 L 134,432 L 130,428 L 130,427 L 127,424 L 127,423 L 126,422 L 127,421 L 126,422 L 123,419 L 123,418 L 120,415 L 120,414 L 118,412 L 119,411 L 118,412 L 116,410 L 116,409 L 113,406 L 113,405 L 109,401 L 109,400 L 105,396 L 105,395 L 104,396 L 104,397 L 101,400 L 101,401 L 99,403 L 99,404 L 97,406 L 97,407 L 95,409 L 95,410 L 93,412 L 93,413 L 92,414 L 92,415 L 90,417 L 90,418 L 89,419 L 89,420 L 88,421 L 88,422 L 87,423 L 87,424 L 86,425 L 86,426 L 85,427 L 85,428 L 84,429 L 84,430 L 83,431 L 83,432 L 82,433 L 82,435 L 81,436 L 81,437 L 80,438 L 80,440 L 79,441 L 79,442 L 78,443 L 78,445 L 77,446 L 77,448 L 76,449 L 76,451 L 75,452 L 75,454 L 74,455 L 74,457 L 73,458 L 73,461 L 72,462 L 72,465 L 71,466 L 71,469 L 70,470 L 70,474 L 69,475 L 69,482 L 68,483 L 68,491 L 67,492 L 67,519 L 68,520 L 68,527 L 69,528 L 69,532 L 70,533 L 70,537 L 71,538 L 71,540 L 72,541 L 72,543 L 73,544 L 73,546 L 74,547 L 74,548 L 75,549 L 75,550 L 76,551 L 76,552 L 77,553 L 77,555 L 79,557 L 79,558 L 80,559 L 80,560 L 81,561 L 80,562 L 81,561 L 82,562 L 82,563 L 84,565 L 84,566 L 87,569 L 87,570 L 89,572 L 88,573 L 89,572 L 99,582 L 100,582 L 101,583 L 101,584 L 102,584 L 104,586 L 105,586 L 108,589 L 109,589 L 111,591 L 112,591 L 114,593 L 115,593 L 116,594 L 115,595 L 116,594 L 117,594 L 118,595 L 119,595 L 120,596 L 121,596 L 122,597 L 123,597 L 124,598 L 125,598 L 126,599 L 128,599 L 129,600 L 131,600 L 132,601 L 134,601 L 135,602 L 134,603 L 135,602 L 137,602 L 138,603 L 142,603 L 143,604 L 142,603 L 142,602 L 141,601 L 141,600 L 139,598 L 139,597 L 138,596 L 138,595 L 136,593 L 136,592 L 135,591 L 135,589 L 134,588 L 134,587 L 133,586 L 133,584 L 132,583 L 132,582 L 131,581 L 131,579 L 130,578 L 130,576 L 129,575 L 129,572 L 128,571 L 128,569 L 127,568 L 127,563 L 126,562 L 126,559 L 125,558 L 125,552 L 124,551 L 124,543 L 123,542 L 123,524 L 122,523 L 123,522 L 122,521 L 122,506 L 123,505 L 123,504 L 122,503 L 122,501 L 123,500 L 123,495 L 124,494 L 127,497 L 127,498 L 130,501 L 130,502 L 133,505 L 133,506 L 136,509 L 136,510 L 140,514 L 140,515 L 143,518 L 143,519 L 146,522 L 146,523 L 147,524 L 146,525 L 147,524 L 149,526 L 149,527 L 152,530 L 152,531 L 155,534 L 155,535 L 159,539 L 159,540 L 163,544 L 163,545 L 165,547 L 164,548 L 165,547 L 166,548 L 166,549 L 170,553 L 170,554 L 172,556 L 172,557 L 176,561 L 176,562 L 179,565 L 179,566 L 182,569 L 182,570 L 181,571 L 182,570 L 186,574 L 186,575 L 188,577 L 187,578 L 188,577 L 190,579 L 190,580 L 192,582 L 192,583 L 195,586 L 194,587 L 195,586 L 197,588 L 197,589 L 196,590 L 195,589 L 197,591 L 198,590 L 202,594 L 202,595 L 203,596 L 202,597 L 203,596 L 205,598 L 205,599 L 206,600 L 208,600 L 209,599 L 210,599 L 212,597 L 213,597 L 218,592 L 219,592 L 219,591 L 226,584 L 226,583 L 229,580 L 229,579 L 232,576 L 232,575 L 233,574 L 233,573 L 235,571 L 235,570 L 237,568 L 237,566 L 239,564 L 239,563 L 240,562 L 240,560 L 241,559 L 241,558 L 242,557 L 242,556 L 243,555 L 243,553 L 244,552 L 244,550 L 245,549 L 245,547 L 246,546 L 246,544 L 247,543 L 247,540 L 248,539 L 248,536 L 249,535 L 249,530 L 250,529 L 250,524 L 251,523 L 251,512 L 252,511 L 252,405 L 251,404 L 251,394 L 250,393 L 250,387 L 249,386 L 249,381 L 248,380 L 248,376 L 247,375 L 247,372 L 246,371 L 246,368 L 245,367 L 245,365 L 244,364 L 244,361 L 243,360 L 243,359 L 242,358 L 242,356 L 241,355 L 241,353 L 240,352 L 240,350 L 239,349 L 239,348 L 238,347 L 238,346 L 237,345 L 237,343 L 236,342 L 236,341 L 235,340 L 235,339 L 233,337 L 233,336 L 232,335 L 232,334 L 231,333 L 231,332 L 230,331 L 230,330 L 228,328 L 228,327 L 226,325 L 226,324 L 224,322 L 224,321 L 222,319 L 222,318 L 219,315 L 219,314 L 215,310 L 215,309 L 214,308 L 215,307 L 214,308 L 202,296 L 201,296 L 193,288 Z" fill="black" /></svg>